<?xml version="1.0"?>
<svg xmlns="http://www.w3.org/2000/svg" height="512px" viewBox="0 0 409.6 409.6" width="512px"><g><path d="m341.335938 273.066406c-37.699219 0-68.269532 30.570313-68.269532 68.269532 0 37.699218 30.570313 68.265624 68.269532 68.265624 37.699218 0 68.265624-30.566406 68.265624-68.265624 0-37.699219-30.566406-68.269532-68.265624-68.269532zm0 102.398438c-18.820313 0-34.136719-15.3125-34.136719-34.128906 0-18.835938 15.316406-34.136719 34.136719-34.136719 18.832031 0 34.128906 15.300781 34.128906 34.136719 0 18.816406-15.296875 34.128906-34.128906 34.128906zm0 0" data-original="#000000" class="active-path" data-old_color="#000000" fill="#1273EB"/><path d="m264.550781 119.464844c-33 0-59.75 26.753906-59.75 59.734375s26.75 59.734375 59.75 59.734375c32.960938 0 59.714844-26.753906 59.714844-59.734375s-26.753906-59.734375-59.714844-59.734375zm0 85.335937c-14.117187 0-25.617187-11.484375-25.617187-25.601562 0-14.113281 11.5-25.597657 25.617187-25.597657 14.101563 0 25.585938 11.484376 25.585938 25.597657 0 14.117187-11.484375 25.601562-25.585938 25.601562zm0 0" data-original="#000000" class="active-path" data-old_color="#000000" fill="#1273EB"/><path d="m102.398438 204.800781c-56.5625 0-102.398438 45.847657-102.398438 102.382813 0 56.566406 45.835938 102.417968 102.398438 102.417968 56.566406 0 102.402343-45.851562 102.402343-102.402343s-45.835937-102.398438-102.402343-102.398438zm0 170.664063c-37.652344 0-68.261719-30.628906-68.261719-68.28125 0-37.636719 30.617187-68.25 68.261719-68.25 37.648437 0 68.265624 30.613281 68.265624 68.25 0 37.652344-30.613281 68.28125-68.265624 68.28125zm0 0" data-original="#000000" class="active-path" data-old_color="#000000" fill="#1273EB"/><path d="m85.335938 0c-47.136719 0-85.335938 38.199219-85.335938 85.335938 0 47.132812 38.199219 85.335937 85.335938 85.335937 47.132812 0 85.335937-38.203125 85.335937-85.335937-.007813-47.136719-38.203125-85.335938-85.335937-85.335938zm0 136.535156c-28.234376 0-51.199219-22.964844-51.199219-51.199218 0-28.234376 22.964843-51.199219 51.199219-51.199219 28.234374 0 51.199218 22.964843 51.199218 51.199219 0 28.230468-22.96875 51.199218-51.199218 51.199218zm0 0" data-original="#000000" class="active-path" data-old_color="#000000" fill="#1273EB"/><path d="m392.53125 221.863281c0 9.425781-7.640625 17.066407-17.066406 17.066407-9.425782 0-17.066406-7.640626-17.066406-17.066407 0-9.421875 7.640624-17.0625 17.066406-17.0625 9.425781 0 17.066406 7.640625 17.066406 17.0625zm0 0" data-original="#000000" class="active-path" data-old_color="#000000" fill="#1273EB"/><path d="m264.535156 59.734375c0 14.140625-11.460937 25.601563-25.601562 25.601563-14.136719 0-25.597656-11.460938-25.597656-25.601563 0-14.136719 11.460937-25.597656 25.597656-25.597656 14.140625 0 25.601562 11.460937 25.601562 25.597656zm0 0" data-original="#000000" class="active-path" data-old_color="#000000" fill="#1273EB"/><path d="m358.414062 0c-28.28125 0-51.214843 22.917969-51.214843 51.199219 0 28.285156 22.933593 51.199219 51.214843 51.199219 28.269532 0 51.1875-22.914063 51.1875-51.199219 0-28.28125-22.917968-51.199219-51.1875-51.199219zm0 68.265625c-9.414062 0-17.078124-7.648437-17.078124-17.066406 0-9.414063 7.664062-17.0625 17.078124-17.0625 9.402344 0 17.050782 7.648437 17.050782 17.0625 0 9.417969-7.648438 17.066406-17.050782 17.066406zm0 0" data-original="#000000" class="active-path" data-old_color="#000000" fill="#1273EB"/></g> </svg>
